{
  "accessors": [
    {
      "bufferView": 2,
      "componentType": 5126,
      "count": 2142,
      "max": [
        111.97720336914062,
        102.22760009765625,
        153.35279846191406
      ],
      "min": [
        -114.79399871826172,
        -101.08550262451172,
        -151.74020385742188
      ],
      "type": "VEC3"
    },
    {
      "bufferView": 2,
      "byteOffset": 25704,
      "componentType": 5126,
      "count": 2142,
      "max": [
        0.99977892637252808,
        0.99977511167526245,
        0.99948364496231079
      ],
      "min": [
        -0.9996759295463562,
        -0.99988758563995361,
        -0.99645406007766724
      ],
      "type": "VEC3"
    },
    {
      "bufferView": 3,
      "componentType": 5126,
      "count": 2142,
      "max": [
        0.99910318851470947,
        0.99969720840454102,
        0.99980378150939941,
        1
      ],
      "min": [
        -0.99746870994567871,
        -0.99872994422912598,
        -0.99917364120483398,
        -1
      ],
      "type": "VEC4"
    },
    {
      "bufferView": 1,
      "componentType": 5126,
      "count": 2142,
      "max": [
        0.9868999719619751,
        0.98750001192092896
      ],
      "min": [
        0.0094999996945261955,
        0.0049000000581145287
      ],
      "type": "VEC2"
    },
    {
      "bufferView": 0,
      "componentType": 5125,
      "count": 11178,
      "max": [
        2141
      ],
      "min": [
        0
      ],
      "type": "SCALAR"
    },
    {
      "bufferView": 2,
      "byteOffset": 51408,
      "componentType": 5126,
      "count": 416,
      "max": [
        111.26170349121094,
        60.312900543212891,
        19.561899185180664
      ],
      "min": [
        -68.072601318359375,
        -102.59929656982422,
        -128.70849609375
      ],
      "type": "VEC3"
    },
    {
      "bufferView": 2,
      "byteOffset": 56400,
      "componentType": 5126,
      "count": 416,
      "max": [
        0.96426606178283691,
        0.9817015528678894,
        0.55016481876373291
      ],
      "min": [
        -0.92587953805923462,
        -0.99498480558395386,
        -0.89850109815597534
      ],
      "type": "VEC3"
    },
    {
      "bufferView": 1,
      "byteOffset": 17136,
      "componentType": 5126,
      "count": 416,
      "max": [
        0.75220000743865967,
        0.99699997901916504
      ],
      "min": [
        0.01640000008046627,
        0.037900000810623169
      ],
      "type": "VEC2"
    },
    {
      "bufferView": 0,
      "byteOffset": 44712,
      "componentType": 5125,
      "count": 420,
      "max": [
        415
      ],
      "min": [
        0
      ],
      "type": "SCALAR"
    },
    {
      "bufferView": 2,
      "byteOffset": 61392,
      "componentType": 5126,
      "count": 3376,
      "max": [
        109.73310089111328,
        58.687999725341797,
        23.178300857543945
      ],
      "min": [
        -69.205001831054688,
        -101.55599975585938,
        -146.39230346679688
      ],
      "type": "VEC3"
    },
    {
      "bufferView": 2,
      "byteOffset": 101904,
      "componentType": 5126,
      "count": 3376,
      "max": [
        0.99899774789810181,
        0.99969595670700073,
        0.99986004829406738
      ],
      "min": [
        -0.99882793426513672,
        -0.99918127059936523,
        -0.99969559907913208
      ],
      "type": "VEC3"
    },
    {
      "bufferView": 1,
      "byteOffset": 20464,
      "componentType": 5126,
      "count": 3376,
      "max": [
        0.98839998245239258,
        0.97469997406005859
      ],
      "min": [
        0.023299999535083771,
        0.0093999998643994331
      ],
      "type": "VEC2"
    },
    {
      "bufferView": 0,
      "byteOffset": 46392,
      "componentType": 5125,
      "count": 17028,
      "max": [
        3375
      ],
      "min": [
        0
      ],
      "type": "SCALAR"
    },
    {
      "bufferView": 2,
      "byteOffset": 142416,
      "componentType": 5126,
      "count": 207,
      "max": [
        83.194099426269531,
        63.119899749755859,
        -41.966300964355469
      ],
      "min": [
        24.287200927734375,
        34.525798797607422,
        -101.44709777832031
      ],
      "type": "VEC3"
    },
    {
      "bufferView": 2,
      "byteOffset": 144900,
      "componentType": 5126,
      "count": 207,
      "max": [
        0.93729186058044434,
        0.98954504728317261,
        0.9402167797088623
      ],
      "min": [
        -0.92685526609420776,
        -0.99795931577682495,
        -0.960826575756073
      ],
      "type": "VEC3"
    },
    {
      "bufferView": 1,
      "byteOffset": 47472,
      "componentType": 5126,
      "count": 207,
      "max": [
        0.2653999924659729,
        0.63309997320175171
      ],
      "min": [
        0.15070000290870667,
        0.40040001273155212
      ],
      "type": "VEC2"
    },
    {
      "bufferView": 0,
      "byteOffset": 114504,
      "componentType": 5125,
      "count": 1008,
      "max": [
        206
      ],
      "min": [
        0
      ],
      "type": "SCALAR"
    },
    {
      "bufferView": 2,
      "byteOffset": 147384,
      "componentType": 5126,
      "count": 2051,
      "max": [
        108.54750061035156,
        68.065597534179688,
        19.042299270629883
      ],
      "min": [
        -67.539497375488281,
        -101.693603515625,
        -140.72430419921875
      ],
      "type": "VEC3"
    },
    {
      "bufferView": 2,
      "byteOffset": 171996,
      "componentType": 5126,
      "count": 2051,
      "max": [
        0.99799847602844238,
        0.99777084589004517,
        0.99992668628692627
      ],
      "min": [
        -0.99592834711074829,
        -0.99846893548965454,
        -0.99996781349182129
      ],
      "type": "VEC3"
    },
    {
      "bufferView": 1,
      "byteOffset": 49128,
      "componentType": 5126,
      "count": 2051,
      "max": [
        0.97390002012252808,
        0.94330000877380371
      ],
      "min": [
        0.043699998408555984,
        0.043699998408555984
      ],
      "type": "VEC2"
    },
    {
      "bufferView": 0,
      "byteOffset": 118536,
      "componentType": 5125,
      "count": 10224,
      "max": [
        2050
      ],
      "min": [
        0
      ],
      "type": "SCALAR"
    }
  ],
  "asset": {
    "extras": {
      "author": "sammite (https://sketchfab.com/sammite86)",
      "license": "CC-BY-4.0 (http://creativecommons.org/licenses/by/4.0/)",
      "source": "https://sketchfab.com/3d-models/human-heart-bc51630b88b94f5fb6bdaef1488041c3",
      "title": "human heart"
    },
    "generator": "Sketchfab-9.90.0",
    "version": "2.0"
  },
  "bufferViews": [
    {
      "buffer": 0,
      "byteLength": 159432,
      "byteOffset": 0,
      "name": "floatBufferViews",
      "target": 34963
    },
    {
      "buffer": 0,
      "byteLength": 65536,
      "byteOffset": 159432,
      "byteStride": 8,
      "name": "floatBufferViews",
      "target": 34962
    },
    {
      "buffer": 0,
      "byteLength": 196608,
      "byteOffset": 224968,
      "byteStride": 12,
      "name": "floatBufferViews",
      "target": 34962
    },
    {
      "buffer": 0,
      "byteLength": 34272,
      "byteOffset": 421576,
      "byteStride": 16,
      "name": "floatBufferViews",
      "target": 34962
    }
  ],
  "buffers": [
    {
      "byteLength": 455848,
      "uri": "scene.bin"
    }
  ],
  "images": [
    {
      "uri": "textures/Material__12_baseColor.png"
    },
    {
      "uri": "textures/Material__12_emissive.png"
    },
    {
      "uri": "textures/Material__24_baseColor.png"
    },
    {
      "uri": "textures/Material__24_emissive.png"
    },
    {
      "uri": "textures/Material__37_baseColor.png"
    },
    {
      "uri": "textures/Material__37_normal.png"
    }
  ],
  "materials": [
    {
      "alphaMode": "BLEND",
      "doubleSided": true,
      "emissiveFactor": [
        0,
        0,
        0
      ],
      "emissiveTexture": {
        "index": 1,
        "texCoord": 0
      },
      "name": "Material__12",
      "pbrMetallicRoughness": {
        "baseColorFactor": [
          1,
          1,
          1,
          1
        ],
        "baseColorTexture": {
          "index": 0,
          "texCoord": 0
        },
        "metallicFactor": 0,
        "roughnessFactor": 0.59999999999999998
      }
    },
    {
      "alphaMode": "BLEND",
      "doubleSided": true,
      "emissiveFactor": [
        0,
        0,
        0
      ],
      "emissiveTexture": {
        "index": 3,
        "texCoord": 0
      },
      "name": "Material__24",
      "pbrMetallicRoughness": {
        "baseColorFactor": [
          1,
          1,
          1,
          1
        ],
        "baseColorTexture": {
          "index": 2,
          "texCoord": 0
        },
        "metallicFactor": 0,
        "roughnessFactor": 0.59999999999999998
      }
    },
    {
      "alphaCutoff": 0.01,
      "alphaMode": "MASK",
      "doubleSided": true,
      "emissiveFactor": [
        0,
        0,
        0
      ],
      "emissiveTexture": {
        "index": 4,
        "texCoord": 0
      },
      "name": "Material__37",
      "normalTexture": {
        "index": 5,
        "scale": 1,
        "texCoord": 0
      },
      "pbrMetallicRoughness": {
        "baseColorFactor": [
          1,
          1,
          1,
          1
        ],
        "baseColorTexture": {
          "index": 4,
          "texCoord": 0
        },
        "metallicFactor": 0,
        "roughnessFactor": 0.59999999999999998
      }
    }
  ],
  "meshes": [
    {
      "primitives": [
        {
          "attributes": {
            "NORMAL": 1,
            "POSITION": 0,
            "TANGENT": 2,
            "TEXCOORD_0": 3
          },
          "indices": 4,
          "material": 2,
          "mode": 4
        }
      ]
    },
    {
      "primitives": [
        {
          "attributes": {
            "NORMAL": 6,
            "POSITION": 5,
            "TEXCOORD_0": 7
          },
          "indices": 8,
          "material": 0,
          "mode": 4
        }
      ]
    },
    {
      "primitives": [
        {
          "attributes": {
            "NORMAL": 10,
            "POSITION": 9,
            "TEXCOORD_0": 11
          },
          "indices": 12,
          "material": 0,
          "mode": 4
        }
      ]
    },
    {
      "primitives": [
        {
          "attributes": {
            "NORMAL": 14,
            "POSITION": 13,
            "TEXCOORD_0": 15
          },
          "indices": 16,
          "material": 1,
          "mode": 4
        }
      ]
    },
    {
      "primitives": [
        {
          "attributes": {
            "NORMAL": 18,
            "POSITION": 17,
            "TEXCOORD_0": 19
          },
          "indices": 20,
          "material": 1,
          "mode": 4
        }
      ]
    }
  ],
  "nodes": [
    {
      "children": [
        1
      ],
      "name": "RootNode (gltf orientation matrix)",
      "rotation": [
        -0.70710678118654746,
        -0,
        -0,
        0.70710678118654757
      ]
    },
    {
      "children": [
        2
      ],
      "name": "RootNode (model correction matrix)"
    },
    {
      "children": [
        3,
        4,
        5,
        6,
        7
      ],
      "name": "human heart.obj.cleaner"
    },
    {
      "mesh": 0,
      "name": ""
    },
    {
      "mesh": 1,
      "name": ""
    },
    {
      "mesh": 2,
      "name": ""
    },
    {
      "mesh": 3,
      "name": ""
    },
    {
      "mesh": 4,
      "name": ""
    }
  ],
  "samplers": [
    {
      "magFilter": 9729,
      "minFilter": 9987,
      "wrapS": 10497,
      "wrapT": 10497
    }
  ],
  "scene": 0,
  "scenes": [
    {
      "name": "OSG_Scene",
      "nodes": [
        0
      ]
    }
  ],
  "textures": [
    {
      "sampler": 0,
      "source": 0
    },
    {
      "sampler": 0,
      "source": 1
    },
    {
      "sampler": 0,
      "source": 2
    },
    {
      "sampler": 0,
      "source": 3
    },
    {
      "sampler": 0,
      "source": 4
    },
    {
      "sampler": 0,
      "source": 5
    }
  ]
}

