{
  "accessors": [
    {
      "bufferView": 2,
      "componentType": 5126,
      "count": 65532,
      "max": [
        0.44381600618362427,
        5.6658158302307129,
        0.67761099338531494
      ],
      "min": [
        -0.40913099050521851,
        4.3628191947937012,
        -0.56327897310256958
      ],
      "type": "VEC3"
    },
    {
      "bufferView": 2,
      "byteOffset": 786384,
      "componentType": 5126,
      "count": 65532,
      "max": [
        0.99991101026535034,
        0.99999594688415527,
        0.99998587369918823
      ],
      "min": [
        -1,
        -0.99998903274536133,
        -0.99958980083465576
      ],
      "type": "VEC3"
    },
    {
      "bufferView": 3,
      "componentType": 5126,
      "count": 65532,
      "max": [
        0.99983054399490356,
        0.99999630451202393,
        0.99999409914016724,
        1
      ],
      "min": [
        -0.99998539686203003,
        -0.99996656179428101,
        -0.99977093935012817,
        -1
      ],
      "type": "VEC4"
    },
    {
      "bufferView": 1,
      "componentType": 5126,
      "count": 65532,
      "max": [
        0.99948102235794067,
        0.98348897695541382
      ],
      "min": [
        0.00020199999562464654,
        0.00029299999005161226
      ],
      "type": "VEC2"
    },
    {
      "bufferView": 0,
      "componentType": 5125,
      "count": 317127,
      "max": [
        65531
      ],
      "min": [
        0
      ],
      "type": "SCALAR"
    },
    {
      "bufferView": 2,
      "byteOffset": 1572768,
      "componentType": 5126,
      "count": 65532,
      "max": [
        0.44463101029396057,
        5.6912832260131836,
        0.67758399248123169
      ],
      "min": [
        -0.40913099050521851,
        4.3645467758178711,
        -0.56327897310256958
      ],
      "type": "VEC3"
    },
    {
      "bufferView": 2,
      "byteOffset": 2359152,
      "componentType": 5126,
      "count": 65532,
      "max": [
        0.99997574090957642,
        0.99988400936126709,
        0.9999963641166687
      ],
      "min": [
        -1,
        -0.99996423721313477,
        -0.99983137845993042
      ],
      "type": "VEC3"
    },
    {
      "bufferView": 3,
      "byteOffset": 1048512,
      "componentType": 5126,
      "count": 65532,
      "max": [
        0.99996751546859741,
        0.99989253282546997,
        0.99965512752532959,
        1
      ],
      "min": [
        -0.99992674589157104,
        -0.999991774559021,
        -0.99997609853744507,
        -1
      ],
      "type": "VEC4"
    },
    {
      "bufferView": 1,
      "byteOffset": 524256,
      "componentType": 5126,
      "count": 65532,
      "max": [
        0.9978489875793457,
        0.9882580041885376
      ],
      "min": [
        8.800000068731606e-05,
        0.00029900000663474202
      ],
      "type": "VEC2"
    },
    {
      "bufferView": 0,
      "byteOffset": 1268508,
      "componentType": 5125,
      "count": 305484,
      "max": [
        65531
      ],
      "min": [
        0
      ],
      "type": "SCALAR"
    },
    {
      "bufferView": 2,
      "byteOffset": 3145536,
      "componentType": 5126,
      "count": 57639,
      "max": [
        0.44463101029396057,
        5.6912832260131836,
        0.67758399248123169
      ],
      "min": [
        -0.40910598635673523,
        4.3631319999694824,
        -0.56129199266433716
      ],
      "type": "VEC3"
    },
    {
      "bufferView": 2,
      "byteOffset": 3837204,
      "componentType": 5126,
      "count": 57639,
      "max": [
        0.99998080730438232,
        0.9997866153717041,
        0.9999963641166687
      ],
      "min": [
        -0.99999988079071045,
        -0.99981528520584106,
        -0.99989223480224609
      ],
      "type": "VEC3"
    },
    {
      "bufferView": 3,
      "byteOffset": 2097024,
      "componentType": 5126,
      "count": 57639,
      "max": [
        0.99986094236373901,
        0.99993675947189331,
        0.99987393617630005,
        1
      ],
      "min": [
        -0.99995601177215576,
        -0.99994903802871704,
        -0.99992090463638306,
        -1
      ],
      "type": "VEC4"
    },
    {
      "bufferView": 1,
      "byteOffset": 1048512,
      "componentType": 5126,
      "count": 57639,
      "max": [
        0.99998801946640015,
        0.98807001113891602
      ],
      "min": [
        0,
        0
      ],
      "type": "VEC2"
    },
    {
      "bufferView": 0,
      "byteOffset": 2490444,
      "componentType": 5125,
      "count": 192405,
      "max": [
        57638
      ],
      "min": [
        0
      ],
      "type": "SCALAR"
    }
  ],
  "asset": {
    "extras": {
      "author": "Science Museum Group (https://sketchfab.com/sciencemuseum)",
      "license": "CC-BY-NC-4.0 (http://creativecommons.org/licenses/by-nc/4.0/)",
      "source": "https://sketchfab.com/3d-models/model-of-human-eye-e94ef889864045c1a971facce4c65e73",
      "title": "Model of human eye"
    },
    "generator": "Sketchfab-6.85.0",
    "version": "2.0"
  },
  "bufferViews": [
    {
      "buffer": 0,
      "byteLength": 3260064,
      "byteOffset": 0,
      "name": "floatBufferViews",
      "target": 34963
    },
    {
      "buffer": 0,
      "byteLength": 1509624,
      "byteOffset": 3260064,
      "byteStride": 8,
      "name": "floatBufferViews",
      "target": 34962
    },
    {
      "buffer": 0,
      "byteLength": 4528872,
      "byteOffset": 4769688,
      "byteStride": 12,
      "name": "floatBufferViews",
      "target": 34962
    },
    {
      "buffer": 0,
      "byteLength": 3019248,
      "byteOffset": 9298560,
      "byteStride": 16,
      "name": "floatBufferViews",
      "target": 34962
    }
  ],
  "buffers": [
    {
      "byteLength": 12317808,
      "uri": "scene.bin"
    }
  ],
  "images": [
    {
      "uri": "textures/eye1_baseColor.jpeg"
    },
    {
      "uri": "textures/eye1_metallicRoughness.png"
    }
  ],
  "materials": [
    {
      "doubleSided": true,
      "emissiveFactor": [
        0,
        0,
        0
      ],
      "name": "eye1",
      "pbrMetallicRoughness": {
        "baseColorFactor": [
          1,
          1,
          1,
          1
        ],
        "baseColorTexture": {
          "index": 0,
          "texCoord": 0
        },
        "metallicFactor": 0,
        "metallicRoughnessTexture": {
          "index": 1,
          "texCoord": 0
        },
        "roughnessFactor": 0.44073932929999998
      }
    }
  ],
  "meshes": [
    {
      "primitives": [
        {
          "attributes": {
            "NORMAL": 1,
            "POSITION": 0,
            "TANGENT": 2,
            "TEXCOORD_0": 3
          },
          "indices": 4,
          "material": 0,
          "mode": 4
        }
      ]
    },
    {
      "primitives": [
        {
          "attributes": {
            "NORMAL": 6,
            "POSITION": 5,
            "TANGENT": 7,
            "TEXCOORD_0": 8
          },
          "indices": 9,
          "material": 0,
          "mode": 4
        }
      ]
    },
    {
      "primitives": [
        {
          "attributes": {
            "NORMAL": 11,
            "POSITION": 10,
            "TANGENT": 12,
            "TEXCOORD_0": 13
          },
          "indices": 14,
          "material": 0,
          "mode": 4
        }
      ]
    }
  ],
  "nodes": [
    {
      "children": [
        1
      ],
      "name": "RootNode (gltf orientation matrix)",
      "rotation": [
        -0.70710678118654746,
        -0,
        -0,
        0.70710678118654757
      ]
    },
    {
      "children": [
        2
      ],
      "matrix": [
        0.72450238466262817,
        -0.68545591831207275,
        -0.072432778775691986,
        0,
        0.33744454383850098,
        0.44435945153236389,
        -0.8298649787902832,
        0,
        0.60102200508117676,
        0.57679712772369385,
        0.55324280261993408,
        0,
        -1.7182204723358154,
        2.826136589050293,
        5.1878795623779297,
        1
      ],
      "name": "RootNode (model correction matrix)"
    },
    {
      "children": [
        3,
        4,
        5
      ],
      "name": "eye1.obj.cleaner.materialmerger.gles"
    },
    {
      "mesh": 0,
      "name": ""
    },
    {
      "mesh": 1,
      "name": ""
    },
    {
      "mesh": 2,
      "name": ""
    }
  ],
  "samplers": [
    {
      "magFilter": 9729,
      "minFilter": 9987,
      "wrapS": 10497,
      "wrapT": 10497
    }
  ],
  "scene": 0,
  "scenes": [
    {
      "name": "OSG_Scene",
      "nodes": [
        0
      ]
    }
  ],
  "textures": [
    {
      "sampler": 0,
      "source": 0
    },
    {
      "sampler": 0,
      "source": 1
    }
  ]
}

